# xmcd
#
# Track frame offsets:
#	150
#	19031
#	37498
#	54261
#	70093
#	87401
#	100870
#	115347
#	128985
#	146777
#	165764
#	181180
#	195450
#	215692
#	226931
#
# Disc length: 3242 seconds
#
# Revision: 1
# Processed by: cddbd v1.5.1PL0 Copyright (c) Steve Scherf et al.
# Submitted via: dBpowerAMP V4.0
#
DISCID=ce0ca80f
DTITLE=2boss Vega - Game of Inches
DYEAR=1998
DGENRE=R&B
TTITLE0=Just Tell Me
TTITLE1=Forgotten Man
TTITLE2=Albert Einstein Blues
TTITLE3=Dream For Free
TTITLE4=Where I Live
TTITLE5=Don't Want to Know
TTITLE6=Sweet Tooth
TTITLE7=Wrestle With The Demons
TTITLE8=Rear View Mirror
TTITLE9=Too Much to Ask
TTITLE10=Distant Lights
TTITLE11=More to The Story
TTITLE12=Nightmare
TTITLE13=Reason Why
TTITLE14=Maureen
EXTD=
EXTT0=
EXTT1=
EXTT2=
EXTT3=
EXTT4=
EXTT5=
EXTT6=
EXTT7=
EXTT8=
EXTT9=
EXTT10=
EXTT11=
EXTT12=
EXTT13=
EXTT14=
PLAYORDER=
